<svg width="25" height="25" viewBox="0 0 25 25" fill="none" xmlns="http://www.w3.org/2000/svg">
    <path d="M1.37188 9.78542L3.33021 9.53646C3.49167 9.03958 3.69063 8.56042 3.92292 8.10521L2.71354 6.54792C2.22396 5.91771 2.28125 5.02812 2.84063 4.48646L4.48125 2.84583C5.02813 2.28125 5.91771 2.225 6.54896 2.71354L8.10417 3.92292C8.55938 3.69062 9.03854 3.49167 9.53646 3.33021L9.78542 1.375C9.87917 0.590625 10.5448 0 11.3333 0H13.6667C14.4552 0 15.1208 0.590625 15.2146 1.37187L15.4635 3.33021C15.9615 3.49167 16.4406 3.68958 16.8958 3.92292L18.4521 2.71354C19.0813 2.225 19.9708 2.28125 20.5135 2.84062L22.1542 4.48021C22.7188 5.02812 22.776 5.91771 22.2865 6.54896L21.0771 8.10521C21.3104 8.56042 21.5083 9.03958 21.6698 9.53646L23.625 9.78542C24.4094 9.87917 25 10.5448 25 11.3333V13.6667C25 14.4552 24.4094 15.1208 23.6281 15.2146L21.6698 15.4635C21.5083 15.9604 21.3094 16.4396 21.0771 16.8948L22.2865 18.4521C22.776 19.0823 22.7188 19.9719 22.1594 20.5135L20.5188 22.1542C19.9708 22.7177 19.0823 22.774 18.451 22.2854L16.8948 21.076C16.4396 21.3094 15.9604 21.5083 15.4635 21.6687L15.2146 23.6229C15.1208 24.4094 14.4552 25 13.6667 25H11.3333C10.5448 25 9.87917 24.4094 9.78542 23.6281L9.53646 21.6698C9.03958 21.5083 8.56042 21.3094 8.10521 21.0771L6.54792 22.2865C5.91771 22.776 5.02813 22.7188 4.48646 22.1594L2.84583 20.5187C2.28125 19.9708 2.22396 19.0823 2.71354 18.451L3.92292 16.8948C3.68958 16.4396 3.49063 15.9604 3.33021 15.4635L1.37604 15.2146C0.591667 15.1208 0.00104141 14.4552 0.00104141 13.6667V11.3333C0 10.5448 0.590626 9.87917 1.37188 9.78542ZM12.5 17.7083C15.3719 17.7083 17.7083 15.3719 17.7083 12.5C17.7083 9.62812 15.3719 7.29167 12.5 7.29167C9.62813 7.29167 7.29167 9.62812 7.29167 12.5C7.29167 15.3719 9.62813 17.7083 12.5 17.7083Z" fill="#707070"/>
</svg>
