<svg width="70" height="44" viewBox="0 0 70 44" fill="none" xmlns="http://www.w3.org/2000/svg">
    <path d="M2 40V4C2 2.89543 2.89543 2 4 2H66.0797C67.7129 2 68.6575 3.85167 67.6989 5.17393L56.3511 20.8261C55.8434 21.5263 55.8434 22.4737 56.3511 23.1739L67.6989 38.8261C68.6575 40.1483 67.7129 42 66.0797 42H4C2.89543 42 2 41.1046 2 40Z" stroke="black" stroke-width="3"/>
    <path d="M23.625 22.1133H16.2305V28.1602H24.8203V30H13.9805V12.9375H24.7031V14.7891H16.2305V20.2734H23.625V22.1133ZM40.7344 30H38.4727L29.8828 16.8516V30H27.6211V12.9375H29.8828L38.4961 26.1445V12.9375H40.7344V30Z" fill="black"/>
</svg>
