<svg width="70" height="44" viewBox="0 0 70 44" fill="none" xmlns="http://www.w3.org/2000/svg">
    <path d="M2 40V4C2 2.89543 2.89543 2 4 2H66.0797C67.7129 2 68.6575 3.85167 67.6989 5.17393L56.3511 20.8261C55.8434 21.5263 55.8434 22.4737 56.3511 23.1739L67.6989 38.8261C68.6575 40.1483 67.7129 42 66.0797 42H4C2.89543 42 2 41.1046 2 40Z" stroke="#A0A0A0" stroke-width="3"/>
    <path d="M20.2383 23.0977H16.2305V30H13.9688V12.9375H19.6172C21.5391 12.9375 23.0156 13.375 24.0469 14.25C25.0859 15.125 25.6055 16.3984 25.6055 18.0703C25.6055 19.1328 25.3164 20.0586 24.7383 20.8477C24.168 21.6367 23.3711 22.2266 22.3477 22.6172L26.3555 29.8594V30H23.9414L20.2383 23.0977ZM16.2305 21.2578H19.6875C20.8047 21.2578 21.6914 20.9688 22.3477 20.3906C23.0117 19.8125 23.3438 19.0391 23.3438 18.0703C23.3438 17.0156 23.0273 16.207 22.3945 15.6445C21.7695 15.082 20.8633 14.7969 19.6758 14.7891H16.2305V21.2578ZM40.7812 12.9375V24.5391C40.7734 26.1484 40.2656 27.4648 39.2578 28.4883C38.2578 29.5117 36.8984 30.0859 35.1797 30.2109L34.582 30.2344C32.7148 30.2344 31.2266 29.7305 30.1172 28.7227C29.0078 27.7148 28.4453 26.3281 28.4297 24.5625V12.9375H30.6562V24.4922C30.6562 25.7266 30.9961 26.6875 31.6758 27.375C32.3555 28.0547 33.3242 28.3945 34.582 28.3945C35.8555 28.3945 36.8281 28.0547 37.5 27.375C38.1797 26.6953 38.5195 25.7383 38.5195 24.5039V12.9375H40.7812Z" fill="#A0A0A0"/>
</svg>
